<svg width="24" height="24" viewBox="0 0 24 24" fill="none" xmlns="http://www.w3.org/2000/svg">
<circle cx="8" cy="8" r="2.5" stroke="#6A6A6A" stroke-linecap="round"/>
<path d="M11.7679 8.5C12.0332 8.04063 12.47 7.70543 12.9824 7.56815C13.4947 7.43086 14.0406 7.50273 14.5 7.76795C14.9594 8.03317 15.2946 8.47 15.4319 8.98236C15.5691 9.49472 15.4973 10.0406 15.2321 10.5C14.9668 10.9594 14.53 11.2946 14.0176 11.4319C13.5053 11.5691 12.9594 11.4973 12.5 11.2321C12.0406 10.9668 11.7054 10.53 11.5681 10.0176C11.4309 9.50528 11.5027 8.95937 11.7679 8.5L11.7679 8.5Z" stroke="#6A6A6A"/>
<path d="M8.00049 12.5L8.00051 12H8.00049V12.5ZM13.4058 17.5068L13.8995 17.4281L13.8995 17.4281L13.4058 17.5068ZM12.5005 18.5V19H12.5006L12.5005 18.5ZM2.59521 17.5068L2.10146 17.4281L2.10145 17.4281L2.59521 17.5068ZM8.00049 12.5L8.00047 13C9.88161 13.0001 11.021 13.7507 11.7364 14.671C12.4699 15.6148 12.7822 16.7716 12.912 17.5856L13.4058 17.5068L13.8995 17.4281C13.7574 16.5373 13.407 15.1908 12.5259 14.0573C11.6266 12.9005 10.1993 12.0001 8.00051 12L8.00049 12.5ZM13.4058 17.5068L12.912 17.5856C12.9434 17.7825 12.792 17.9999 12.5003 18L12.5005 18.5L12.5006 19C13.3132 18.9997 14.042 18.3217 13.8995 17.4281L13.4058 17.5068ZM12.5005 18.5V18H3.50049V18.5V19H12.5005V18.5ZM3.50049 18.5V18C3.20894 18 3.05753 17.7828 3.08898 17.5856L2.59521 17.5068L2.10145 17.4281C1.95894 18.3217 2.68747 19 3.50049 19V18.5ZM2.59521 17.5068L3.08897 17.5856C3.21882 16.7715 3.53101 15.6147 4.26457 14.6709C4.97993 13.7506 6.11926 13 8.00049 13V12.5V12C5.80165 12 4.37431 12.9003 3.47504 14.0572C2.59396 15.1907 2.24355 16.5373 2.10146 17.4281L2.59521 17.5068Z" fill="#6A6A6A"/>
<path d="M13.5005 13.5L13.5006 13H13.5005V13.5ZM17.2964 17.416L17.7814 17.2946L17.7814 17.2945L17.2964 17.416ZM16.395 18.5V19H16.395L16.395 18.5ZM13.4058 17.5068L13.8995 17.4281L13.8995 17.4281L13.4058 17.5068ZM11.8003 13.9814L11.5323 13.5593L11.0173 13.8862L11.439 14.327L11.8003 13.9814ZM13.5005 13.5L13.5004 14C14.5279 14.0001 15.2496 14.5028 15.7783 15.207C16.3176 15.9252 16.6343 16.8304 16.8114 17.5375L17.2964 17.416L17.7814 17.2945C17.5903 16.5313 17.2327 15.4786 16.578 14.6065C15.9127 13.7204 14.9205 13.0002 13.5006 13L13.5005 13.5ZM17.2964 17.416L16.8114 17.5375C16.8652 17.7526 16.7072 18 16.395 18L16.395 18.5L16.395 19C17.266 19 18.015 18.2272 17.7814 17.2946L17.2964 17.416ZM16.395 18.5V18H12.4995V18.5V19H16.395V18.5ZM12.4995 18.5V19C13.3118 19 14.0421 18.3224 13.8995 17.4281L13.4058 17.5068L12.912 17.5856C12.9433 17.7821 12.7918 18 12.4995 18V18.5ZM13.4058 17.5068L13.8995 17.4281C13.74 16.4281 13.3153 14.8421 12.1616 13.6358L11.8003 13.9814L11.439 14.327C12.3861 15.3173 12.7652 16.6648 12.912 17.5856L13.4058 17.5068ZM11.8003 13.9814L12.0682 14.4036C12.4583 14.156 12.9267 14 13.5005 14V13.5V13C12.7321 13 12.0785 13.2126 11.5323 13.5593L11.8003 13.9814Z" fill="#6A6A6A"/>
<rect x="16.25" y="5.25" width="4.5" height="0.5" rx="0.25" stroke="#6A6A6A" stroke-width="0.5" stroke-linecap="round"/>
<rect x="18.75" y="3.25" width="4.5" height="0.5" rx="0.25" transform="rotate(90 18.75 3.25)" stroke="#6A6A6A" stroke-width="0.5" stroke-linecap="round"/>
</svg>
