<svg width="12" height="20" viewBox="0 0 12 20" fill="none" xmlns="http://www.w3.org/2000/svg">
<path d="M0.94362 20C0.646884 20 0.41543 19.9005 0.249258 19.7016C0.0830861 19.5027 0 19.223 0 18.8625V2.67599C0 1.7871 0.210682 1.11888 0.632047 0.671329C1.05341 0.223776 1.68249 0 2.51929 0H9.48071C10.3175 0 10.9466 0.223776 11.368 0.671329C11.7893 1.11888 12 1.7871 12 2.67599V18.8625C12 19.223 11.9169 19.5027 11.7507 19.7016C11.5846 19.9005 11.3531 20 11.0564 20C10.8368 20 10.632 19.9223 10.4421 19.7669C10.2582 19.6115 9.96439 19.3318 9.56083 18.9277L6.08012 15.338C6.02671 15.2758 5.97329 15.2758 5.91988 15.338L2.43917 18.9277C2.03561 19.338 1.73887 19.6177 1.54896 19.7669C1.35905 19.9223 1.15727 20 0.94362 20Z" fill="#D9D9D9"/>
</svg>
