<svg width="10" height="11" viewBox="0 0 10 11" fill="none" xmlns="http://www.w3.org/2000/svg">
<path d="M0 5.33398C0 5.18945 0.0507812 5.06641 0.152344 4.96484C0.257812 4.85938 0.380859 4.80664 0.521484 4.80664H4.3125V1.02148C4.3125 0.880859 4.36328 0.759766 4.46484 0.658203C4.56641 0.552734 4.68945 0.5 4.83398 0.5C4.97852 0.5 5.10156 0.552734 5.20312 0.658203C5.30859 0.759766 5.36133 0.880859 5.36133 1.02148V4.80664H9.14648C9.28711 4.80664 9.4082 4.85938 9.50977 4.96484C9.61523 5.06641 9.66797 5.18945 9.66797 5.33398C9.66797 5.47852 9.61523 5.60156 9.50977 5.70312C9.4082 5.80469 9.28711 5.85547 9.14648 5.85547H5.36133V9.64648C5.36133 9.78711 5.30859 9.9082 5.20312 10.0098C5.10156 10.1152 4.97852 10.168 4.83398 10.168C4.68945 10.168 4.56641 10.1152 4.46484 10.0098C4.36328 9.9082 4.3125 9.78711 4.3125 9.64648V5.85547H0.521484C0.380859 5.85547 0.257812 5.80469 0.152344 5.70312C0.0507812 5.60156 0 5.47852 0 5.33398Z" fill="black"/>
</svg>
