<svg width="18" height="18" viewBox="0 0 18 18" fill="none" xmlns="http://www.w3.org/2000/svg">
<path d="M0.567383 16.9717C0.123047 16.5273 0.135742 15.791 0.567383 15.3594L7.08008 8.84668L0.567383 2.34668C0.135742 1.91504 0.123047 1.16602 0.567383 0.734375C0.999023 0.290039 1.74805 0.302734 2.17969 0.734375L8.67969 7.24707L15.1924 0.734375C15.624 0.302734 16.3604 0.290039 16.792 0.734375C17.249 1.16602 17.2363 1.91504 16.792 2.34668L10.292 8.84668L16.792 15.3594C17.2363 15.791 17.249 16.5273 16.792 16.9717C16.3604 17.416 15.624 17.4033 15.1924 16.9717L8.67969 10.459L2.17969 16.9717C1.74805 17.4033 0.999023 17.416 0.567383 16.9717Z" fill="#171717"/>
</svg>
