<svg width="19" height="16" viewBox="0 0 19 16" fill="none" xmlns="http://www.w3.org/2000/svg">
<path d="M3.64583 15.4711L5.2181 13.8989H17.7376C17.9525 13.8989 18.1348 13.977 18.2845 14.1332C18.4408 14.2895 18.5189 14.475 18.5189 14.6899C18.5189 14.9047 18.4408 15.087 18.2845 15.2368C18.1348 15.393 17.9525 15.4711 17.7376 15.4711H3.64583ZM2.66927 14.5727L0.413411 15.4418C0.296224 15.4874 0.188802 15.4581 0.0911458 15.3539C0 15.2563 -0.0227865 15.1489 0.0227865 15.0317L0.950521 12.8539L11.6146 2.20941L13.3236 3.92816L2.66927 14.5727ZM14.1829 3.08831L12.4544 1.36956L13.4408 0.393C13.6882 0.152115 13.9388 0.0219067 14.1927 0.00237542C14.4531 -0.0171558 14.694 0.0837556 14.9154 0.30511L15.2474 0.637141C15.4753 0.865006 15.5827 1.10589 15.5697 1.3598C15.5566 1.6137 15.4232 1.86761 15.1693 2.12152L14.1829 3.08831Z" fill="black"/>
</svg>
