<svg width="22" height="16" viewBox="0 0 22 16" fill="none" xmlns="http://www.w3.org/2000/svg">
<path d="M2.57812 15.4609C1.76042 15.4609 1.14583 15.2578 0.734375 14.8516C0.328125 14.4505 0.125 13.8464 0.125 13.0391V3.51562C0.125 2.72917 0.3125 2.14062 0.6875 1.75C1.0625 1.35938 1.59375 1.16406 2.28125 1.16406H4.50781C4.76302 1.16406 4.98438 1.18229 5.17188 1.21875C5.36458 1.25521 5.53906 1.3151 5.69531 1.39844C5.85677 1.48177 6.02344 1.59635 6.19531 1.74219L6.67188 2.13281C6.86979 2.29948 7.0599 2.41927 7.24219 2.49219C7.42448 2.5599 7.64844 2.59375 7.91406 2.59375H12.6406C12.5312 2.8125 12.4453 3.02344 12.3828 3.22656C12.3203 3.42448 12.2656 3.63281 12.2188 3.85156H7.58594C7.33073 3.85156 7.10677 3.83333 6.91406 3.79688C6.72135 3.76042 6.54427 3.70052 6.38281 3.61719C6.22135 3.53385 6.05729 3.42188 5.89062 3.28125L5.41406 2.88281C5.21615 2.71615 5.02604 2.59635 4.84375 2.52344C4.66667 2.45052 4.44792 2.41406 4.1875 2.41406H2.53906C2.16406 2.41406 1.8776 2.51302 1.67969 2.71094C1.48177 2.90885 1.38281 3.20052 1.38281 3.58594V12.9766C1.38281 13.3828 1.48698 13.6901 1.69531 13.8984C1.90365 14.1016 2.20312 14.2031 2.59375 14.2031H15.3906C15.776 14.2031 16.0755 14.1016 16.2891 13.8984C16.5026 13.6901 16.6094 13.3854 16.6094 12.9844V9.88281C16.8125 9.91406 17.0339 9.92969 17.2734 9.92969C17.513 9.92448 17.7109 9.90885 17.8672 9.88281V13.0391C17.8672 13.8464 17.6719 14.4505 17.2812 14.8516C16.8906 15.2578 16.3464 15.4609 15.6484 15.4609H2.57812ZM0.890625 6.71094V5.53125H12.1562C12.1771 5.73438 12.2109 5.9349 12.2578 6.13281C12.3047 6.33073 12.3646 6.52344 12.4375 6.71094H0.890625ZM17.1641 8.85938C16.6224 8.85938 16.112 8.75781 15.6328 8.55469C15.1536 8.34635 14.7318 8.0599 14.3672 7.69531C14.0026 7.33073 13.7161 6.90885 13.5078 6.42969C13.2995 5.95052 13.1953 5.4375 13.1953 4.89062C13.1953 4.34375 13.2995 3.83333 13.5078 3.35938C13.7161 2.88021 14.0026 2.45833 14.3672 2.09375C14.7318 1.72396 15.1536 1.4375 15.6328 1.23438C16.112 1.02604 16.6224 0.921875 17.1641 0.921875C17.7109 0.921875 18.224 1.02604 18.7031 1.23438C19.1823 1.4375 19.6042 1.72135 19.9688 2.08594C20.3333 2.45052 20.6172 2.8724 20.8203 3.35156C21.0286 3.83073 21.1328 4.34375 21.1328 4.89062C21.1328 5.43229 21.0286 5.94271 20.8203 6.42188C20.612 6.90104 20.3229 7.32292 19.9531 7.6875C19.5885 8.05208 19.1667 8.33854 18.6875 8.54688C18.2083 8.75521 17.7005 8.85938 17.1641 8.85938ZM17.1641 7.375C17.3099 7.375 17.4245 7.33073 17.5078 7.24219C17.5964 7.15365 17.6406 7.03906 17.6406 6.89844V5.36719H19.1719C19.3125 5.36719 19.4271 5.32552 19.5156 5.24219C19.6042 5.15365 19.6484 5.03646 19.6484 4.89062C19.6484 4.74479 19.6042 4.63021 19.5156 4.54688C19.4271 4.45833 19.3125 4.41406 19.1719 4.41406H17.6406V2.88281C17.6406 2.74219 17.5964 2.6276 17.5078 2.53906C17.4245 2.45052 17.3099 2.40625 17.1641 2.40625C17.0182 2.40625 16.901 2.45052 16.8125 2.53906C16.7292 2.6276 16.6875 2.74219 16.6875 2.88281V4.41406H15.1562C15.0156 4.41406 14.901 4.45833 14.8125 4.54688C14.724 4.63021 14.6797 4.74479 14.6797 4.89062C14.6797 5.03646 14.724 5.15365 14.8125 5.24219C14.901 5.32552 15.0156 5.36719 15.1562 5.36719H16.6875V6.89844C16.6875 7.03906 16.7292 7.15365 16.8125 7.24219C16.901 7.33073 17.0182 7.375 17.1641 7.375Z" fill="#AFAFAF"/>
</svg>
