<svg width="12" height="9" viewBox="0 0 12 9" fill="none" xmlns="http://www.w3.org/2000/svg">
<path d="M6 8.5C5.82719 8.5 5.67511 8.4182 5.54378 8.26278L0.186636 1.78425C0.0622119 1.63701 -4.18342e-08 1.45705 -3.25377e-08 1.24438C-1.43023e-08 0.827198 0.269585 0.499999 0.629032 0.5C0.808755 0.5 0.960829 0.581799 1.07834 0.712678L6 6.66769L10.9217 0.712679C11.0392 0.5818 11.1982 0.5 11.371 0.5C11.7304 0.5 12 0.827198 12 1.24438C12 1.45706 11.9378 1.63701 11.8203 1.78425L6.45622 8.26278C6.3318 8.4182 6.17281 8.5 6 8.5Z" fill="black"/>
</svg>
