<svg width="20" height="18" viewBox="0 0 20 18" fill="none" xmlns="http://www.w3.org/2000/svg">
<path d="M10 18C9.89929 18 9.77845 17.9706 9.63746 17.9118C9.50319 17.8595 9.38234 17.8007 9.27492 17.7353C7.38167 16.5588 5.74018 15.3268 4.35045 14.0392C2.96073 12.7451 1.88654 11.4183 1.1279 10.0588C0.375965 8.69281 0 7.31373 0 5.92157C0 5.05229 0.140987 4.25817 0.422961 3.53922C0.711648 2.81373 1.11111 2.18627 1.62135 1.65686C2.13159 1.12745 2.72575 0.718954 3.40383 0.431373C4.08191 0.143791 4.81705 0 5.60926 0C6.59617 0 7.46224 0.245098 8.20745 0.735294C8.95267 1.22549 9.55018 1.87255 10 2.67647C10.4565 1.86601 11.0574 1.21895 11.8026 0.735294C12.5478 0.245098 13.4105 0 14.3907 0C15.1829 0 15.9181 0.143791 16.5962 0.431373C17.281 0.718954 17.8751 1.12745 18.3787 1.65686C18.8889 2.18627 19.285 2.81373 19.567 3.53922C19.8557 4.25817 20 5.05229 20 5.92157C20 7.31373 19.6207 8.69281 18.862 10.0588C18.1101 11.4183 17.0393 12.7451 15.6495 14.0392C14.2665 15.3268 12.6284 16.5588 10.7351 17.7353C10.6277 17.8007 10.5035 17.8595 10.3625 17.9118C10.2283 17.9706 10.1074 18 10 18Z" fill="#D9D9D9"/>
</svg>
