<svg width="20" height="16" viewBox="0 0 20 16" fill="none" xmlns="http://www.w3.org/2000/svg">
<path d="M19.3119 7.88281C19.3119 8.14627 19.2079 8.37852 18.9999 8.57958L12.0842 15.4744C11.8832 15.6686 11.6578 15.7656 11.4082 15.7656C11.1517 15.7656 10.9368 15.679 10.7635 15.5056C10.5901 15.3392 10.5035 15.1278 10.5035 14.8713C10.5035 14.7465 10.5243 14.6286 10.5659 14.5177C10.6075 14.3998 10.6699 14.2993 10.7531 14.2161L13.0826 11.845L17.2112 8.0908L17.4191 8.60038L14.0705 8.80837H0.915155C0.644768 8.80837 0.422913 8.7217 0.249588 8.54838C0.0831959 8.37506 0 8.1532 0 7.88281C0 7.61243 0.0831959 7.39057 0.249588 7.21725C0.422913 7.04392 0.644768 6.95726 0.915155 6.95726H14.0705L17.4191 7.16525L17.2112 7.68522L13.0826 3.92061L10.7531 1.54952C10.6699 1.46633 10.6075 1.36927 10.5659 1.25834C10.5243 1.14048 10.5035 1.01915 10.5035 0.894356C10.5035 0.637835 10.5901 0.426379 10.7635 0.259987C10.9368 0.0866624 11.1517 0 11.4082 0C11.533 0 11.6509 0.0242655 11.7618 0.0727964C11.8797 0.121327 11.9941 0.201057 12.105 0.311985L18.9999 7.18605C19.2079 7.3871 19.3119 7.61936 19.3119 7.88281Z" fill="white"/>
</svg>
