<svg width="12" height="8" viewBox="0 0 12 8" fill="none" xmlns="http://www.w3.org/2000/svg">
<path d="M5.93555 7.08789C5.86719 7.08789 5.80339 7.07422 5.74414 7.04687C5.68945 7.01953 5.63704 6.98079 5.58691 6.93066L0.391601 1.46875C0.295898 1.3776 0.248047 1.26367 0.248047 1.12695C0.248047 1.04492 0.268555 0.967447 0.30957 0.894531C0.350586 0.821614 0.407552 0.764648 0.480469 0.723632C0.548828 0.682617 0.628581 0.662109 0.719726 0.662109C0.842773 0.662109 0.952148 0.705403 1.04785 0.791992L5.93555 5.93262L10.8232 0.791992C10.9189 0.705404 11.0283 0.662109 11.1514 0.662109C11.2425 0.662109 11.3223 0.682617 11.3906 0.723633C11.4635 0.764648 11.5205 0.821614 11.5615 0.894531C11.6025 0.967448 11.623 1.04492 11.623 1.12695C11.623 1.26367 11.5775 1.3776 11.4863 1.46875L6.28418 6.93066C6.23405 6.98079 6.17936 7.01953 6.12012 7.04687C6.06543 7.07422 6.00391 7.08789 5.93555 7.08789Z" fill="#171717"/>
</svg>
