<svg xmlns="http://www.w3.org/2000/svg" width="52" height="44" viewBox="0 0 26 22" fill="none">
  <path d="M3.26707 19.155C2.17805 19.155 1.35955 18.8845 0.811566 18.3435C0.270522 17.8094 0 17.0047 0 15.9296V3.22545C0 2.1503 0.270522 1.34567 0.811566 0.811566C1.35955 0.270522 2.17805 0 3.26707 0H17.4799C18.5689 0 19.3839 0.270522 19.925 0.811566C20.466 1.34567 20.7366 2.1503 20.7366 3.22545V9.16653C20.6048 9.14572 20.4695 9.13185 20.3308 9.12491C20.192 9.11798 20.0533 9.11451 19.9146 9.11451C19.7759 9.11451 19.6371 9.12145 19.4984 9.13532C19.3597 9.14225 19.214 9.15266 19.0614 9.16653V6.2116C19.0614 5.73298 18.9365 5.37229 18.6868 5.12951C18.4371 4.8798 18.0799 4.75494 17.6151 4.75494H3.111C2.6532 4.75494 2.29944 4.8798 2.04972 5.12951C1.80001 5.37229 1.67516 5.73298 1.67516 6.2116V16.0232C1.67516 16.5018 1.80001 16.8625 2.04972 17.1053C2.29944 17.355 2.6532 17.4799 3.111 17.4799H13.4221C13.4914 17.7781 13.5816 18.066 13.6926 18.3435C13.8105 18.6279 13.9458 18.8984 14.0984 19.155H3.26707ZM8.33416 8.49023C8.15381 8.49023 8.02549 8.45901 7.94918 8.39659C7.87982 8.32722 7.84514 8.20236 7.84514 8.02202V7.40814C7.84514 7.22779 7.87982 7.10294 7.94918 7.03357C8.02549 6.96421 8.15381 6.92952 8.33416 6.92952H8.94803C9.12838 6.92952 9.25324 6.96421 9.3226 7.03357C9.3989 7.10294 9.43706 7.22779 9.43706 7.40814V8.02202C9.43706 8.20236 9.3989 8.32722 9.3226 8.39659C9.25324 8.45901 9.12838 8.49023 8.94803 8.49023H8.33416ZM11.7989 8.49023C11.6116 8.49023 11.4833 8.45901 11.4139 8.39659C11.3446 8.32722 11.3099 8.20236 11.3099 8.02202V7.40814C11.3099 7.22779 11.3446 7.10294 11.4139 7.03357C11.4833 6.96421 11.6116 6.92952 11.7989 6.92952H12.4024C12.5897 6.92952 12.718 6.96421 12.7874 7.03357C12.8567 7.10294 12.8914 7.22779 12.8914 7.40814V8.02202C12.8914 8.20236 12.8567 8.32722 12.7874 8.39659C12.718 8.45901 12.5897 8.49023 12.4024 8.49023H11.7989ZM15.2533 8.49023C15.066 8.49023 14.9377 8.45901 14.8683 8.39659C14.7989 8.32722 14.7643 8.20236 14.7643 8.02202V7.40814C14.7643 7.22779 14.7989 7.10294 14.8683 7.03357C14.9377 6.96421 15.066 6.92952 15.2533 6.92952H15.8672C16.0475 6.92952 16.1724 6.96421 16.2417 7.03357C16.3111 7.10294 16.3458 7.22779 16.3458 7.40814V8.02202C16.3458 8.20236 16.3111 8.32722 16.2417 8.39659C16.1724 8.45901 16.0475 8.49023 15.8672 8.49023H15.2533ZM4.8798 11.8926C4.69252 11.8926 4.56419 11.8613 4.49483 11.7989C4.42546 11.7296 4.39078 11.6047 4.39078 11.4244V10.8105C4.39078 10.6301 4.42546 10.5087 4.49483 10.4463C4.56419 10.3769 4.69252 10.3423 4.8798 10.3423H5.49368C5.67403 10.3423 5.79888 10.3769 5.86825 10.4463C5.93761 10.5087 5.97229 10.6301 5.97229 10.8105V11.4244C5.97229 11.6047 5.93761 11.7296 5.86825 11.7989C5.79888 11.8613 5.67403 11.8926 5.49368 11.8926H4.8798ZM8.33416 11.8926C8.15381 11.8926 8.02549 11.8613 7.94918 11.7989C7.87982 11.7296 7.84514 11.6047 7.84514 11.4244V10.8105C7.84514 10.6301 7.87982 10.5087 7.94918 10.4463C8.02549 10.3769 8.15381 10.3423 8.33416 10.3423H8.94803C9.12838 10.3423 9.25324 10.3769 9.3226 10.4463C9.3989 10.5087 9.43706 10.6301 9.43706 10.8105V11.4244C9.43706 11.6047 9.3989 11.7296 9.3226 11.7989C9.25324 11.8613 9.12838 11.8926 8.94803 11.8926H8.33416ZM11.7989 11.8926C11.6116 11.8926 11.4833 11.8613 11.4139 11.7989C11.3446 11.7296 11.3099 11.6047 11.3099 11.4244V10.8105C11.3099 10.6301 11.3446 10.5087 11.4139 10.4463C11.4833 10.3769 11.6116 10.3423 11.7989 10.3423H12.4024C12.5897 10.3423 12.718 10.3769 12.7874 10.4463C12.8567 10.5087 12.8914 10.6301 12.8914 10.8105V11.4244C12.8914 11.6047 12.8567 11.7296 12.7874 11.7989C12.718 11.8613 12.5897 11.8926 12.4024 11.8926H11.7989ZM4.8798 15.3053C4.69252 15.3053 4.56419 15.2706 4.49483 15.2013C4.42546 15.1319 4.39078 15.007 4.39078 14.8267V14.2128C4.39078 14.0325 4.42546 13.9111 4.49483 13.8486C4.56419 13.7793 4.69252 13.7446 4.8798 13.7446H5.49368C5.67403 13.7446 5.79888 13.7793 5.86825 13.8486C5.93761 13.9111 5.97229 14.0325 5.97229 14.2128V14.8267C5.97229 15.007 5.93761 15.1319 5.86825 15.2013C5.79888 15.2706 5.67403 15.3053 5.49368 15.3053H4.8798ZM8.33416 15.3053C8.15381 15.3053 8.02549 15.2706 7.94918 15.2013C7.87982 15.1319 7.84514 15.007 7.84514 14.8267V14.2128C7.84514 14.0325 7.87982 13.9111 7.94918 13.8486C8.02549 13.7793 8.15381 13.7446 8.33416 13.7446H8.94803C9.12838 13.7446 9.25324 13.7793 9.3226 13.8486C9.3989 13.9111 9.43706 14.0325 9.43706 14.2128V14.8267C9.43706 15.007 9.3989 15.1319 9.3226 15.2013C9.25324 15.2706 9.12838 15.3053 8.94803 15.3053H8.33416ZM11.7989 15.3053C11.6116 15.3053 11.4833 15.2706 11.4139 15.2013C11.3446 15.1319 11.3099 15.007 11.3099 14.8267V14.2128C11.3099 14.0325 11.3446 13.9111 11.4139 13.8486C11.4833 13.7793 11.6116 13.7446 11.7989 13.7446H12.4024C12.5897 13.7446 12.718 13.7793 12.7874 13.8486C12.8567 13.9111 12.8914 14.0325 12.8914 14.2128V14.8267C12.8914 15.007 12.8567 15.1319 12.7874 15.2013C12.718 15.2706 12.5897 15.3053 12.4024 15.3053H11.7989ZM19.9146 21.1111C19.1932 21.1111 18.5134 20.9724 17.8753 20.6949C17.2371 20.4244 16.6753 20.0464 16.1897 19.5608C15.7041 19.0753 15.3226 18.5134 15.0452 17.8753C14.7677 17.2371 14.629 16.5539 14.629 15.8255C14.629 15.0972 14.7677 14.4174 15.0452 13.7862C15.3226 13.1481 15.7041 12.5862 16.1897 12.1007C16.6753 11.6082 17.2371 11.2267 17.8753 10.9561C18.5134 10.6787 19.1932 10.54 19.9146 10.54C20.6429 10.54 21.3261 10.6787 21.9643 10.9561C22.6025 11.2267 23.1643 11.6047 23.6499 12.0903C24.1354 12.5758 24.5135 13.1377 24.784 13.7758C25.0614 14.414 25.2002 15.0972 25.2002 15.8255C25.2002 16.5469 25.0614 17.2267 24.784 17.8649C24.5065 18.503 24.1215 19.0649 23.6291 19.5504C23.1435 20.036 22.5816 20.4175 21.9435 20.6949C21.3053 20.9724 20.629 21.1111 19.9146 21.1111ZM19.9146 19.1342C20.1088 19.1342 20.2614 19.0753 20.3724 18.9573C20.4903 18.8394 20.5493 18.6868 20.5493 18.4995V16.4602H22.5886C22.7759 16.4602 22.9285 16.4047 23.0464 16.2937C23.1643 16.1758 23.2233 16.0198 23.2233 15.8255C23.2233 15.6313 23.1643 15.4787 23.0464 15.3677C22.9285 15.2498 22.7759 15.1908 22.5886 15.1908H20.5493V13.1515C20.5493 12.9642 20.4903 12.8116 20.3724 12.6937C20.2614 12.5758 20.1088 12.5168 19.9146 12.5168C19.7204 12.5168 19.5643 12.5758 19.4464 12.6937C19.3354 12.8116 19.2799 12.9642 19.2799 13.1515V15.1908H17.2406C17.0533 15.1908 16.9007 15.2498 16.7828 15.3677C16.6648 15.4787 16.6059 15.6313 16.6059 15.8255C16.6059 16.0198 16.6648 16.1758 16.7828 16.2937C16.9007 16.4047 17.0533 16.4602 17.2406 16.4602H19.2799V18.4995C19.2799 18.6868 19.3354 18.8394 19.4464 18.9573C19.5643 19.0753 19.7204 19.1342 19.9146 19.1342Z" fill="#AAAAAA"/>
</svg>