<svg width="13" height="19" viewBox="0 0 13 19" fill="none" xmlns="http://www.w3.org/2000/svg">
<path d="M2.91406 12.1484C2.80469 12.1484 2.71094 12.112 2.63281 12.0391C2.5599 11.9661 2.52344 11.8724 2.52344 11.7578C2.52344 11.6536 2.5599 11.5651 2.63281 11.4922C2.71094 11.4193 2.80469 11.3828 2.91406 11.3828H10C10.1094 11.3828 10.2005 11.4193 10.2734 11.4922C10.3516 11.5651 10.3906 11.6536 10.3906 11.7578C10.3906 11.8724 10.3516 11.9661 10.2734 12.0391C10.2005 12.112 10.1094 12.1484 10 12.1484H2.91406ZM2.91406 15.1328C2.80469 15.1328 2.71094 15.0938 2.63281 15.0156C2.5599 14.9375 2.52344 14.8464 2.52344 14.7422C2.52344 14.6328 2.5599 14.5417 2.63281 14.4688C2.71094 14.3958 2.80469 14.3594 2.91406 14.3594H6.96875C7.07292 14.3594 7.16146 14.3958 7.23438 14.4688C7.3125 14.5417 7.35156 14.6328 7.35156 14.7422C7.35156 14.8464 7.3125 14.9375 7.23438 15.0156C7.16146 15.0938 7.07292 15.1328 6.96875 15.1328H2.91406ZM3.15625 8.03125C2.96875 8.03125 2.80729 7.96354 2.67188 7.82812C2.53646 7.69271 2.46875 7.53125 2.46875 7.34375C2.46875 7.15104 2.53646 6.98958 2.67188 6.85938C2.80729 6.72396 2.96875 6.65625 3.15625 6.65625C3.34896 6.65625 3.51302 6.72396 3.64844 6.85938C3.78385 6.98958 3.85156 7.15104 3.85156 7.34375C3.85156 7.53125 3.78385 7.69271 3.64844 7.82812C3.51302 7.96354 3.34896 8.03125 3.15625 8.03125ZM2.875 7.53125L3.17969 6.99219L6.55469 8.69531L6.25 9.23438L2.875 7.53125ZM6.40625 9.60156C6.21354 9.60156 6.04948 9.53385 5.91406 9.39844C5.78385 9.26302 5.71875 9.09896 5.71875 8.90625C5.71875 8.71875 5.78385 8.55729 5.91406 8.42188C6.04948 8.28646 6.21354 8.21875 6.40625 8.21875C6.59896 8.21875 6.76302 8.28646 6.89844 8.42188C7.03385 8.55729 7.10156 8.71875 7.10156 8.90625C7.10156 9.09896 7.03385 9.26302 6.89844 9.39844C6.76302 9.53385 6.59896 9.60156 6.40625 9.60156ZM6.35156 8.66406L9.57812 6.20312L9.94531 6.69531L6.71094 9.15625L6.35156 8.66406ZM9.75 7.1875C9.55729 7.1875 9.39323 7.11979 9.25781 6.98438C9.1276 6.84896 9.0625 6.6849 9.0625 6.49219C9.0625 6.30469 9.1276 6.14323 9.25781 6.00781C9.39323 5.8724 9.55729 5.80469 9.75 5.80469C9.94271 5.80469 10.1068 5.8724 10.2422 6.00781C10.3776 6.14323 10.4453 6.30469 10.4453 6.49219C10.4453 6.6849 10.3776 6.84896 10.2422 6.98438C10.1068 7.11979 9.94271 7.1875 9.75 7.1875ZM2.28125 18.6562C1.52604 18.6562 0.955729 18.4635 0.570312 18.0781C0.190104 17.6927 0 17.1198 0 16.3594V4.3125C0 3.55729 0.184896 2.98698 0.554688 2.60156C0.929688 2.21094 1.48698 2.01562 2.22656 2.01562H2.625C2.61979 2.03646 2.61719 2.0625 2.61719 2.09375C2.61719 2.11979 2.61719 2.14583 2.61719 2.17188V2.70312C2.61719 2.8125 2.625 2.90104 2.64062 2.96875H2.25C1.82292 2.96875 1.5 3.08854 1.28125 3.32812C1.06771 3.56771 0.960938 3.90104 0.960938 4.32812V16.3438C0.960938 16.7812 1.07552 17.1146 1.30469 17.3438C1.53385 17.5781 1.875 17.6953 2.32812 17.6953H10.5859C11.0391 17.6953 11.3802 17.5781 11.6094 17.3438C11.8385 17.1146 11.9531 16.7812 11.9531 16.3438V4.32812C11.9531 3.90104 11.8438 3.56771 11.625 3.32812C11.4115 3.08854 11.0938 2.96875 10.6719 2.96875H10.2734C10.2891 2.90104 10.2969 2.8125 10.2969 2.70312V2.17188C10.2969 2.14583 10.2969 2.11979 10.2969 2.09375C10.2969 2.0625 10.2943 2.03646 10.2891 2.01562H10.6875C11.4271 2.01562 11.9818 2.21094 12.3516 2.60156C12.7266 2.98698 12.9141 3.55729 12.9141 4.3125V16.3594C12.9141 17.1198 12.7214 17.6927 12.3359 18.0781C11.9557 18.4635 11.388 18.6562 10.6328 18.6562H2.28125ZM4.07031 3.63281C3.86719 3.63281 3.70833 3.57552 3.59375 3.46094C3.47917 3.34115 3.42188 3.17708 3.42188 2.96875V2.17188C3.42188 1.95833 3.47917 1.79427 3.59375 1.67969C3.70833 1.5651 3.86719 1.50781 4.07031 1.50781H4.89844C4.91406 1.09115 5.07292 0.736979 5.375 0.445312C5.67708 0.148438 6.03906 0 6.46094 0C6.8776 0 7.23698 0.148438 7.53906 0.445312C7.84115 0.736979 8 1.09115 8.01562 1.50781H8.84375C9.04688 1.50781 9.20573 1.5651 9.32031 1.67969C9.4349 1.79427 9.49219 1.95833 9.49219 2.17188V2.96875C9.49219 3.17708 9.4349 3.34115 9.32031 3.46094C9.20573 3.57552 9.04688 3.63281 8.84375 3.63281H4.07031ZM6.46094 2.24219C6.65365 2.24219 6.81771 2.17188 6.95312 2.03125C7.08854 1.89062 7.15625 1.72917 7.15625 1.54688C7.15625 1.34896 7.08854 1.18229 6.95312 1.04688C6.81771 0.911458 6.65365 0.84375 6.46094 0.84375C6.26302 0.84375 6.09635 0.911458 5.96094 1.04688C5.82552 1.18229 5.75781 1.34896 5.75781 1.54688C5.75781 1.72917 5.82552 1.89062 5.96094 2.03125C6.09635 2.17188 6.26302 2.24219 6.46094 2.24219Z" fill="#171717"/>
</svg>
