<svg width="12" height="16" viewBox="0 0 12 16" fill="none" xmlns="http://www.w3.org/2000/svg">
<path d="M2.24654 16C1.64484 16 1.18535 15.8368 0.868083 15.5105C0.556288 15.1895 0.400391 14.7054 0.400391 14.0581V8.43651C0.400391 7.79466 0.556288 7.31328 0.868083 6.99235C1.18535 6.66599 1.64484 6.5028 2.24654 6.5028H9.75424C10.3559 6.5028 10.8127 6.66599 11.1245 6.99235C11.4418 7.31328 11.6004 7.79466 11.6004 8.43651V14.0581C11.6004 14.7054 11.4418 15.1895 11.1245 15.5105C10.8127 15.8368 10.3559 16 9.75424 16H2.24654ZM2.28757 14.768H9.71321C9.89372 14.768 10.0305 14.7136 10.1235 14.6048C10.2219 14.5014 10.2712 14.3491 10.2712 14.1479V8.34676C10.2712 8.1455 10.2219 7.9932 10.1235 7.88985C10.0305 7.7865 9.89372 7.73483 9.71321 7.73483H2.28757C2.11253 7.73483 1.97578 7.7865 1.87731 7.88985C1.77885 7.9932 1.72962 8.1455 1.72962 8.34676V14.1479C1.72962 14.3491 1.77885 14.5014 1.87731 14.6048C1.97578 14.7136 2.11253 14.768 2.28757 14.768ZM1.83629 7.13106V4.55278C1.83629 3.53017 2.03321 2.68162 2.42706 2.00714C2.82637 1.33265 3.3433 0.829509 3.97783 0.497705C4.61236 0.165902 5.28518 0 5.99629 0C6.71287 0 7.38842 0.165902 8.02295 0.497705C8.65749 0.829509 9.17167 1.33265 9.56552 2.00714C9.96484 2.68162 10.1645 3.53017 10.1645 4.55278V7.13106H8.86808V4.38144C8.86808 3.69607 8.73407 3.1195 8.46603 2.65171C8.20347 2.18392 7.85338 1.83036 7.41578 1.59102C6.98364 1.35169 6.51048 1.23202 5.99629 1.23202C5.48757 1.23202 5.01441 1.35169 4.5768 1.59102C4.14466 1.83036 3.79731 2.18392 3.53475 2.65171C3.27219 3.1195 3.1409 3.69607 3.1409 4.38144V7.13106H1.83629Z" fill="#AD5FFF"/>
</svg>
