<svg width="14" height="14" viewBox="0 0 14 14" fill="none" xmlns="http://www.w3.org/2000/svg">
<path d="M3.80078 10.6426C3.65234 10.709 3.50781 10.7324 3.36719 10.7129C3.22656 10.6895 3.10156 10.623 2.99219 10.5137L2.16016 9.67578C2.04688 9.5625 1.98047 9.4375 1.96094 9.30078C1.94531 9.16016 1.96875 9.01562 2.03125 8.86719L2.85156 6.92188C2.88281 6.85156 2.91211 6.79688 2.93945 6.75781C2.9707 6.71484 3.00781 6.67188 3.05078 6.62891L8.66406 1.0625C8.9375 0.789062 9.22656 0.65625 9.53125 0.664062C9.83984 0.667969 10.1348 0.808594 10.416 1.08594L11.6465 2.32812C11.9238 2.60938 12.0625 2.90234 12.0625 3.20703C12.0664 3.51172 11.9316 3.80078 11.6582 4.07422L6.05078 9.64648C6.00391 9.68945 5.95898 9.72656 5.91602 9.75781C5.87695 9.78516 5.82031 9.8125 5.74609 9.83984L3.80078 10.6426ZM3.71289 9.73438L5.41797 9.02539L11.002 3.48242C11.1816 3.30664 11.1875 3.13281 11.0195 2.96094L9.7832 1.71289C9.70508 1.63086 9.61914 1.5918 9.52539 1.5957C9.43164 1.59961 9.3418 1.64258 9.25586 1.72461L3.67188 7.26758L2.94531 8.9668C2.92188 9.02148 2.91211 9.07422 2.91602 9.125C2.91992 9.17188 2.94922 9.2207 3.00391 9.27148L3.40234 9.66992C3.45703 9.72461 3.50781 9.75391 3.55469 9.75781C3.60156 9.76172 3.6543 9.75391 3.71289 9.73438ZM1.51562 10.9355C1.38672 10.9355 1.30469 10.8906 1.26953 10.8008C1.23438 10.707 1.25977 10.6133 1.3457 10.5195L2.29492 9.51758L3.13867 10.3789L2.58789 10.8008C2.52539 10.8555 2.46875 10.8926 2.41797 10.9121C2.37109 10.9277 2.30664 10.9355 2.22461 10.9355H1.51562ZM3.13867 7.26172L3.68945 6.71094L6.08594 9.125L5.53516 9.67578L3.13867 7.26172ZM8.00195 2.43945L8.55273 1.89453L10.9492 4.30859L10.3984 4.84766L8.00195 2.43945ZM1.39844 13.0273C1.26953 13.0273 1.1582 12.9805 1.06445 12.8867C0.974609 12.793 0.929688 12.6816 0.929688 12.5527C0.929688 12.4238 0.974609 12.3125 1.06445 12.2188C1.1582 12.1289 1.26953 12.084 1.39844 12.084H12.5957C12.7246 12.084 12.8359 12.1289 12.9297 12.2188C13.0234 12.3125 13.0703 12.4238 13.0703 12.5527C13.0703 12.6816 13.0234 12.793 12.9297 12.8867C12.8359 12.9805 12.7246 13.0273 12.5957 13.0273H1.39844Z" fill="black"/>
</svg>
