<svg width="20" height="20" viewBox="0 0 20 20" fill="none" xmlns="http://www.w3.org/2000/svg">
<path d="M4.74055 18L6.35366 16.374H19.1985C19.4189 16.374 19.6059 16.4548 19.7595 16.6164C19.9198 16.778 20 16.9699 20 17.192C20 17.4142 19.9198 17.6028 19.7595 17.7576C19.6059 17.9192 19.4189 18 19.1985 18H4.74055ZM3.73862 17.0708L1.42415 17.9697C1.30392 18.0168 1.19371 17.9865 1.09351 17.8788C1 17.7778 0.976622 17.6667 1.02338 17.5455L1.97522 15.2933L12.9163 4.28493L14.6697 6.06244L3.73862 17.0708ZM15.5514 5.19389L13.778 3.41638L14.7899 2.40643C15.0438 2.15731 15.3009 2.02266 15.5614 2.00246C15.8286 1.98226 16.0758 2.08662 16.3029 2.31554L16.6435 2.65892C16.8773 2.89458 16.9875 3.1437 16.9742 3.40628C16.9608 3.66887 16.8239 3.93145 16.5634 4.19404L15.5514 5.19389Z" fill="black"/>
</svg>
