<svg width="16" height="16" viewBox="0 0 16 16" fill="none" xmlns="http://www.w3.org/2000/svg">
<path d="M8.43359 1.33301L8.43651 0.833008H8.43359V1.33301ZM9.42188 2.22754L9.9191 2.17496L9.91908 2.17478L9.42188 2.22754ZM9.42383 2.24121L8.9263 2.29089V2.29089L9.42383 2.24121ZM9.42578 2.26367L8.92866 2.31728L8.9287 2.31761L9.42578 2.26367ZM11.0469 2.93555L11.3601 3.32527L11.3603 3.32515L11.0469 2.93555ZM11.0654 2.9209L10.7489 2.53387L11.0654 2.9209ZM11.0762 2.91211L10.762 2.52313L10.762 2.52315L11.0762 2.91211ZM12.4072 2.97852L12.7608 2.62496L12.7586 2.62281L12.4072 2.97852ZM13.0215 3.59277L13.3772 3.24141L13.375 3.23922L13.0215 3.59277ZM13.0879 4.9248L13.4766 5.23928L13.4766 5.23928L13.0879 4.9248ZM13.0791 4.93457L12.6922 4.61783L13.0791 4.93457ZM13.0645 4.95312L12.6749 4.63971L12.6748 4.63983L13.0645 4.95312ZM13.7354 6.57324L13.6812 7.0703L13.6812 7.07031L13.7354 6.57324ZM13.7588 6.57617L13.709 7.07368V7.07368L13.7588 6.57617ZM13.7725 6.57715L13.8253 6.07995L13.8251 6.07993L13.7725 6.57715ZM14.667 7.56543H15.167L15.167 7.56224L14.667 7.56543ZM14.667 8.43359L15.167 8.43644V8.43359H14.667ZM13.7725 9.42188L13.825 9.91911L13.8252 9.91908L13.7725 9.42188ZM13.7598 9.42383L13.8094 9.92135V9.92135L13.7598 9.42383ZM13.7363 9.42578L13.6825 8.92869L13.6823 8.92871L13.7363 9.42578ZM13.0654 11.0469L12.6758 11.3603L12.6759 11.3604L13.0654 11.0469ZM13.0801 11.0645L13.467 10.7478V10.7478L13.0801 11.0645ZM13.0879 11.0742L13.4767 10.7598L13.4766 10.7597L13.0879 11.0742ZM13.0215 12.4062L13.375 12.7598L13.3771 12.7577L13.0215 12.4062ZM12.4072 13.0205L12.7586 13.3762L12.7608 13.3741L12.4072 13.0205ZM11.0762 13.0869L10.762 13.4759L10.762 13.4759L11.0762 13.0869ZM11.0654 13.0791L10.7489 13.4661V13.4661L11.0654 13.0791ZM11.0469 13.0635L11.3603 12.6739L11.36 12.6736L11.0469 13.0635ZM9.42578 13.7344L8.92873 13.6801L8.92871 13.6803L9.42578 13.7344ZM9.42383 13.7588L8.9263 13.7091V13.7091L9.42383 13.7588ZM9.42188 13.7725L9.91908 13.8252L9.91909 13.8251L9.42188 13.7725ZM8.43359 14.667V15.167L8.43662 15.167L8.43359 14.667ZM7.56543 14.667L7.56233 15.167H7.56543V14.667ZM6.57715 13.7734L6.07998 13.8266L6.07999 13.8267L6.57715 13.7734ZM6.57617 13.7588L7.07366 13.7088V13.7088L6.57617 13.7588ZM6.57324 13.7354L7.07029 13.6811L7.07029 13.6811L6.57324 13.7354ZM4.95215 13.0645L4.63874 12.6749L4.6387 12.6749L4.95215 13.0645ZM4.93457 13.0791L4.61785 12.6922V12.6922L4.93457 13.0791ZM4.9248 13.0879L5.23928 13.4766L5.2393 13.4766L4.9248 13.0879ZM3.59277 13.0215L3.23921 13.375L3.2414 13.3772L3.59277 13.0215ZM2.97852 12.4072L2.6228 12.7586L2.62496 12.7608L2.97852 12.4072ZM2.91211 11.0762L2.52315 10.762L2.52313 10.762L2.91211 11.0762ZM2.9209 11.0654L2.53387 10.7489L2.9209 11.0654ZM2.93555 11.0469L3.32515 11.3603L3.32527 11.3601L2.93555 11.0469ZM2.26367 9.42578L2.31761 8.9287L2.31728 8.92866L2.26367 9.42578ZM2.24121 9.42383L2.29089 8.9263H2.29089L2.24121 9.42383ZM2.22754 9.42188L2.17478 9.91908L2.17496 9.9191L2.22754 9.42188ZM1.33301 8.43359H0.832999L0.833016 8.43651L1.33301 8.43359ZM1.33301 7.56543L0.833008 7.56225V7.56543H1.33301ZM2.22754 6.57715L2.17488 6.07993L2.17469 6.07995L2.22754 6.57715ZM2.24121 6.57617L2.29107 7.07368H2.29107L2.24121 6.57617ZM2.26465 6.57324L2.31883 7.0703L2.31892 7.07029L2.26465 6.57324ZM2.93555 4.95312L3.32529 4.63991L3.32525 4.63986L2.93555 4.95312ZM2.9209 4.93457L3.30786 4.61793H3.30786L2.9209 4.93457ZM2.91211 4.9248L2.52328 5.23914L2.52343 5.23933L2.91211 4.9248ZM2.97852 3.59277L2.62496 3.23921L2.62286 3.24133L2.97852 3.59277ZM3.59277 2.97852L3.24133 2.62286L3.23922 2.62496L3.59277 2.97852ZM4.9248 2.91211L5.23933 2.52343L5.23914 2.52328L4.9248 2.91211ZM4.93457 2.9209L4.61793 3.30786V3.30786L4.93457 2.9209ZM4.95312 2.93555L4.63986 3.32525L4.63991 3.32529L4.95312 2.93555ZM6.57324 2.26465L7.07029 2.31892L7.0703 2.31883L6.57324 2.26465ZM6.57617 2.24121L7.07368 2.29107V2.29107L6.57617 2.24121ZM6.57715 2.22754L6.07995 2.17469L6.07993 2.17488L6.57715 2.22754ZM7.56543 1.33301V0.832998L7.56225 0.833018L7.56543 1.33301ZM8 5.33301V4.83301V4.83301V5.33301ZM5.33301 8H4.83301V8H5.33301ZM8 10.667V11.167V11.167V10.667ZM10.667 8H11.167V8H10.667ZM8.43359 1.33301L8.43068 1.833C8.68505 1.83448 8.89778 2.02689 8.92467 2.28029L9.42188 2.22754L9.91908 2.17478C9.83852 1.41549 9.20057 0.837472 8.43651 0.833016L8.43359 1.33301ZM9.42188 2.22754L8.92465 2.28012C8.92548 2.28804 8.92637 2.29465 8.92704 2.29934C8.9277 2.30402 8.92831 2.30784 8.92868 2.31008C8.92903 2.31225 8.92935 2.31415 8.92941 2.31453C8.92955 2.31533 8.92948 2.31489 8.9294 2.31442C8.92882 2.31093 8.92743 2.30214 8.9263 2.29089L9.42383 2.24121L9.92135 2.19153C9.91956 2.17358 9.91734 2.15941 9.91603 2.15149C9.91577 2.1499 9.91552 2.14842 9.91549 2.14822C9.91538 2.1476 9.91555 2.14856 9.91575 2.14983C9.91597 2.15118 9.91645 2.15415 9.917 2.15803C9.91756 2.16191 9.91834 2.16777 9.9191 2.17496L9.42188 2.22754ZM9.42383 2.24121L8.9263 2.29089C8.92643 2.29218 8.9265 2.29297 8.92662 2.29451C8.92667 2.29515 8.9267 2.29556 8.92678 2.29664C8.92685 2.29749 8.92696 2.29892 8.92709 2.30049C8.92731 2.30319 8.92783 2.30958 8.92866 2.31728L9.42578 2.26367L9.9229 2.21006C9.92323 2.2131 9.92345 2.21551 9.92359 2.21698C9.92372 2.21844 9.9238 2.21945 9.92382 2.21967C9.92383 2.21988 9.92383 2.21986 9.92378 2.21914C9.92374 2.21866 9.92364 2.21739 9.92355 2.21624C9.92311 2.2106 9.92243 2.20226 9.92135 2.19153L9.42383 2.24121ZM9.42578 2.26367L8.9287 2.31761C9.05653 3.49572 10.4363 4.06777 11.3601 3.32527L11.0469 2.93555L10.7336 2.54582C10.4258 2.79324 9.96549 2.60257 9.92286 2.20974L9.42578 2.26367ZM11.0469 2.93555L11.3603 3.32515C11.3569 3.32789 11.3544 3.3298 11.3553 3.32907C11.3557 3.32874 11.3557 3.32873 11.3569 3.32787C11.3577 3.32723 11.3588 3.32636 11.3601 3.32536C11.3657 3.32099 11.373 3.31527 11.382 3.30793L11.0654 2.9209L10.7489 2.53387C10.7479 2.53464 10.7476 2.53491 10.7473 2.53516C10.7463 2.53592 10.7468 2.53554 10.7443 2.53747C10.743 2.53847 10.7386 2.54187 10.7335 2.54594L11.0469 2.93555ZM11.0654 2.9209L11.382 3.30793C11.3851 3.30538 11.3876 3.30334 11.3891 3.30213C11.3908 3.30067 11.3908 3.30071 11.3904 3.30107L11.0762 2.91211L10.762 2.52315C10.7592 2.52543 10.7565 2.52758 10.7549 2.52891C10.753 2.53047 10.7513 2.53187 10.7489 2.53387L11.0654 2.9209ZM11.0762 2.91211L11.3903 3.30109C11.5884 3.1411 11.8749 3.15546 12.0558 3.33422L12.4072 2.97852L12.7586 2.62281C12.2154 2.08616 11.3559 2.0435 10.762 2.52313L11.0762 2.91211ZM12.4072 2.97852L12.0537 3.33207L12.6679 3.94633L13.0215 3.59277L13.375 3.23922L12.7608 2.62496L12.4072 2.97852ZM13.0215 3.59277L12.6657 3.94413C12.8449 4.12556 12.8591 4.41267 12.6992 4.61033L13.0879 4.9248L13.4766 5.23928C13.9573 4.64506 13.9137 3.78461 13.3772 3.24142L13.0215 3.59277ZM13.0879 4.9248L12.6992 4.61033C12.7047 4.60345 12.7096 4.59778 12.7134 4.59359C12.717 4.58945 12.72 4.58624 12.7217 4.58445C12.7226 4.58352 12.7233 4.58279 12.7237 4.58236C12.7239 4.58213 12.7241 4.58196 12.7242 4.58185C12.7243 4.58174 12.7243 4.58167 12.7243 4.58166C12.7247 4.58133 12.7234 4.58269 12.7223 4.58375C12.7197 4.58656 12.7151 4.59137 12.7097 4.59746C12.7042 4.6036 12.6983 4.61037 12.6922 4.61783L13.0791 4.93457L13.466 5.25131C13.462 5.25616 13.4581 5.26069 13.4544 5.26486C13.4507 5.26899 13.4477 5.27211 13.4465 5.27342C13.4462 5.27372 13.4456 5.27438 13.4465 5.27337C13.447 5.27287 13.4488 5.27097 13.451 5.26866C13.4532 5.26626 13.4568 5.26246 13.461 5.25774C13.4652 5.25296 13.4706 5.24673 13.4766 5.23928L13.0879 4.9248ZM13.0791 4.93457L12.6922 4.61783C12.6848 4.62688 12.679 4.63424 12.6746 4.63989C12.6736 4.6412 12.6728 4.64233 12.6721 4.64317C12.6712 4.64428 12.6712 4.64429 12.6709 4.64474C12.6701 4.64571 12.6721 4.64317 12.6749 4.63971L13.0645 4.95312L13.454 5.26654C13.4563 5.26373 13.4582 5.26133 13.4595 5.25966C13.4608 5.25799 13.4619 5.25654 13.4626 5.25566C13.4645 5.25315 13.4641 5.25364 13.4649 5.25266C13.4652 5.25233 13.4654 5.25208 13.466 5.25131L13.0791 4.93457ZM13.0645 4.95312L12.6748 4.63983C11.9323 5.5633 12.5032 6.94204 13.6812 7.0703L13.7354 6.57324L13.7895 6.07618C13.3968 6.03342 13.2067 5.57421 13.4541 5.26642L13.0645 4.95312ZM13.7354 6.57324L13.6812 7.07031C13.6772 7.06986 13.674 7.06946 13.6723 7.06924C13.6714 7.06912 13.6707 7.06902 13.6702 7.06896C13.6698 7.0689 13.6695 7.06886 13.6694 7.06885C13.6694 7.06885 13.6695 7.06886 13.6698 7.0689C13.6698 7.0689 13.6707 7.06902 13.671 7.06907C13.672 7.06922 13.6736 7.06945 13.6755 7.06971C13.684 7.07087 13.6951 7.07229 13.709 7.07368L13.7588 6.57617L13.8086 6.07866C13.8097 6.07877 13.8112 6.07896 13.8122 6.07909C13.8122 6.07909 13.8121 6.07908 13.8115 6.079C13.8114 6.07897 13.8097 6.07874 13.8086 6.07858C13.8072 6.07838 13.8047 6.07804 13.8018 6.07766C13.7989 6.07727 13.7946 6.07674 13.7895 6.07618L13.7354 6.57324ZM13.7588 6.57617L13.709 7.07368C13.7156 7.07435 13.7218 7.07487 13.7273 7.07527C13.7328 7.07566 13.7373 7.07592 13.74 7.07607C13.7407 7.0761 13.7412 7.07613 13.7416 7.07615C13.7423 7.07619 13.7419 7.07617 13.7423 7.07619C13.7426 7.0762 13.7417 7.07616 13.7404 7.07608C13.7383 7.07596 13.7303 7.07548 13.7198 7.07437L13.7725 6.57715L13.8251 6.07993C13.8131 6.07866 13.8035 6.07807 13.7997 6.07784C13.7975 6.07771 13.7957 6.07761 13.795 6.07758C13.7948 6.07757 13.7946 6.07756 13.7945 6.07755C13.7943 6.07754 13.7943 6.07754 13.7942 6.07754C13.7941 6.07753 13.7941 6.07753 13.7942 6.07754C13.7947 6.07756 13.7968 6.07768 13.7995 6.07788C13.8023 6.07808 13.8054 6.07834 13.8086 6.07866L13.7588 6.57617ZM13.7725 6.57715L13.7196 7.07435C13.9727 7.10125 14.1654 7.3142 14.167 7.56862L14.667 7.56543L15.167 7.56224C15.1621 6.79888 14.5844 6.16066 13.8253 6.07995L13.7725 6.57715ZM14.667 7.56543H14.167V8.43359H14.667H15.167V7.56543H14.667ZM14.667 8.43359L14.167 8.43074C14.1656 8.68506 13.9732 8.89777 13.7197 8.92467L13.7725 9.42188L13.8252 9.91908C14.5845 9.83853 15.1626 9.20068 15.167 8.43644L14.667 8.43359ZM13.7725 9.42188L13.7199 8.92464C13.7102 8.92567 13.702 8.92682 13.696 8.92773C13.6901 8.92863 13.6853 8.92947 13.6824 8.92998C13.6797 8.93047 13.6773 8.93091 13.6769 8.93099C13.676 8.93117 13.6767 8.93102 13.6775 8.93089C13.6795 8.93051 13.6841 8.92968 13.6901 8.9288C13.6961 8.9279 13.7028 8.92703 13.7101 8.9263L13.7598 9.42383L13.8094 9.92135C13.8199 9.92031 13.8294 9.91908 13.838 9.9178C13.8464 9.91653 13.8533 9.91532 13.8574 9.91456C13.8584 9.91438 13.8592 9.91423 13.8598 9.91412C13.8601 9.91407 13.8603 9.91402 13.8605 9.91399C13.8612 9.91386 13.8603 9.91402 13.8609 9.91392C13.8614 9.91383 13.8599 9.91411 13.858 9.91445C13.8559 9.91481 13.8519 9.91552 13.8467 9.91631C13.8415 9.9171 13.834 9.91815 13.825 9.91911L13.7725 9.42188ZM13.7598 9.42383L13.7101 8.9263C13.7098 8.92633 13.7097 8.92634 13.7085 8.92643C13.7079 8.92647 13.7075 8.9265 13.7064 8.92658C13.7056 8.92664 13.704 8.92675 13.7023 8.92688C13.6997 8.92708 13.6919 8.92767 13.6825 8.92869L13.7363 9.42578L13.7902 9.92287C13.7861 9.92332 13.7829 9.9236 13.7811 9.92376C13.7792 9.92392 13.778 9.92402 13.7777 9.92404C13.7774 9.92406 13.7774 9.92406 13.7782 9.924C13.7788 9.92396 13.7801 9.92386 13.7815 9.92376C13.7878 9.9233 13.7973 9.92256 13.8094 9.92135L13.7598 9.42383ZM13.7363 9.42578L13.6823 8.92871C12.5037 9.05674 11.9331 10.4369 12.6758 11.3603L13.0654 11.0469L13.455 10.7335C13.2072 10.4254 13.3979 9.96549 13.7903 9.92286L13.7363 9.42578ZM13.0654 11.0469L12.6759 11.3604C12.6799 11.3653 12.6833 11.3693 12.6848 11.3712C12.6862 11.3728 12.6884 11.3754 12.6887 11.3758C12.6902 11.3775 12.6914 11.379 12.6931 11.3811L13.0801 11.0645L13.467 10.7478C13.461 10.7404 13.4562 10.7347 13.4529 10.7308C13.4523 10.7301 13.4515 10.7291 13.4512 10.7287C13.4507 10.7282 13.4506 10.7281 13.4506 10.7281C13.4506 10.7281 13.4511 10.7286 13.4517 10.7294C13.4524 10.7302 13.4535 10.7316 13.4549 10.7334L13.0654 11.0469ZM13.0801 11.0645L12.6931 11.3811C12.6931 11.3811 12.6931 11.3811 12.693 11.381C12.693 11.3809 12.6929 11.3809 12.6929 11.3808C12.6927 11.3806 12.6926 11.3805 12.6927 11.3806C12.6928 11.3807 12.6929 11.3808 12.6931 11.3811C12.6933 11.3813 12.6938 11.3819 12.6942 11.3825C12.695 11.3835 12.6969 11.3859 12.6992 11.3887L13.0879 11.0742L13.4766 10.7597C13.478 10.7614 13.4789 10.7627 13.4788 10.7625C13.4787 10.7624 13.4787 10.7623 13.4783 10.7618C13.478 10.7615 13.4775 10.7609 13.477 10.7602C13.4745 10.7571 13.4712 10.753 13.467 10.7478L13.0801 11.0645ZM13.0879 11.0742L12.6991 11.3886C12.8592 11.5865 12.8449 11.8736 12.6658 12.0548L13.0215 12.4062L13.3771 12.7577C13.914 12.2144 13.9572 11.3539 13.4767 10.7598L13.0879 11.0742ZM13.0215 12.4062L12.6679 12.0527L12.0537 12.667L12.4072 13.0205L12.7608 13.3741L13.375 12.7598L13.0215 12.4062ZM12.4072 13.0205L12.0558 12.6648C11.8749 12.8436 11.5884 12.8579 11.3903 12.6979L11.0762 13.0869L10.762 13.4759C11.3559 13.9555 12.2154 13.9129 12.7586 13.3762L12.4072 13.0205ZM11.0762 13.0869L11.3904 12.698C11.3824 12.6915 11.3754 12.6862 11.3699 12.6823C11.3646 12.6784 11.3602 12.6753 11.3574 12.6734C11.3549 12.6717 11.3526 12.6702 11.3523 12.6699C11.3514 12.6693 11.3522 12.6699 11.353 12.6704C11.3552 12.6719 11.3595 12.6749 11.365 12.6789C11.3704 12.6829 11.3761 12.6873 11.382 12.6921L11.0654 13.0791L10.7489 13.4661C10.7573 13.473 10.7654 13.4793 10.773 13.4849C10.7806 13.4904 10.7869 13.4948 10.7908 13.4974C10.7917 13.498 10.7925 13.4986 10.793 13.4989C10.7933 13.4991 10.7935 13.4993 10.7937 13.4994C10.7943 13.4998 10.7935 13.4993 10.794 13.4996C10.7944 13.4998 10.7929 13.4989 10.7911 13.4976C10.789 13.4962 10.7853 13.4936 10.7806 13.4901C10.7758 13.4867 10.7694 13.4818 10.762 13.4759L11.0762 13.0869ZM11.0654 13.0791L11.382 12.6921C11.3811 12.6914 11.3805 12.6909 11.3792 12.6898C11.3787 12.6893 11.3784 12.689 11.3775 12.6883C11.3768 12.6877 11.3757 12.6867 11.3744 12.6856C11.3723 12.6838 11.3669 12.6792 11.3603 12.6739L11.0469 13.0635L10.7334 13.453C10.7307 13.4509 10.7287 13.4491 10.7275 13.4481C10.7263 13.4471 10.7254 13.4464 10.7253 13.4463C10.7251 13.4462 10.7252 13.4462 10.7258 13.4467C10.7262 13.4471 10.7273 13.448 10.7282 13.4488C10.7329 13.4528 10.7398 13.4587 10.7489 13.4661L11.0654 13.0791ZM11.0469 13.0635L11.36 12.6736C10.4369 11.9322 9.05731 12.5022 8.92873 13.6801L9.42578 13.7344L9.92283 13.7886C9.96561 13.3967 10.4255 13.2057 10.7338 13.4533L11.0469 13.0635ZM9.42578 13.7344L8.92871 13.6803C8.92753 13.6912 8.9269 13.7001 8.92669 13.7031C8.92656 13.705 8.92644 13.7068 8.92638 13.7076C8.92631 13.7087 8.92629 13.7091 8.92626 13.7096C8.92621 13.7103 8.92625 13.7096 8.9263 13.7091L9.42383 13.7588L9.92136 13.8085C9.92271 13.7949 9.92349 13.7843 9.92397 13.7771C9.92407 13.7756 9.92417 13.7742 9.92421 13.7736C9.92426 13.7727 9.92426 13.7729 9.92422 13.7733C9.92419 13.7737 9.92408 13.7754 9.92389 13.7777C9.9237 13.7799 9.92336 13.7837 9.92285 13.7885L9.42578 13.7344ZM9.42383 13.7588L8.9263 13.7091C8.92681 13.704 8.9274 13.6992 8.92803 13.6946C8.92866 13.6901 8.92923 13.6866 8.9295 13.685C8.9296 13.6844 8.92969 13.6839 8.92955 13.6847C8.92949 13.6851 8.92915 13.687 8.92877 13.6893C8.92838 13.6917 8.92774 13.6957 8.92705 13.7006C8.92635 13.7055 8.92548 13.7121 8.92466 13.7198L9.42188 13.7725L9.91909 13.8251C9.91835 13.8321 9.91758 13.8379 9.917 13.842C9.91642 13.8461 9.91591 13.8492 9.91566 13.8507C9.91543 13.8521 9.91525 13.8532 9.91535 13.8526C9.91538 13.8524 9.91564 13.8509 9.91592 13.8492C9.91656 13.8454 9.91751 13.8395 9.91852 13.8323C9.91953 13.825 9.9205 13.817 9.92136 13.8085L9.42383 13.7588ZM9.42188 13.7725L8.92467 13.7197C8.8978 13.9729 8.68503 14.1655 8.43056 14.167L8.43359 14.667L8.43662 15.167C9.2004 15.1624 9.83852 14.5845 9.91908 13.8252L9.42188 13.7725ZM8.43359 14.667V14.167H7.56543V14.667V15.167H8.43359V14.667ZM7.56543 14.667L7.56853 14.167C7.31408 14.1654 7.10137 13.973 7.07431 13.7202L6.57715 13.7734L6.07999 13.8267C6.16122 14.5855 6.79935 15.1623 7.56233 15.167L7.56543 14.667ZM6.57715 13.7734L7.07432 13.7203C7.07504 13.727 7.07548 13.7326 7.07576 13.7365C7.07604 13.7403 7.0762 13.7433 7.07628 13.7449C7.07636 13.7463 7.0764 13.7473 7.07639 13.747C7.07638 13.7469 7.07638 13.7468 7.07637 13.7467C7.07637 13.7466 7.07636 13.7464 7.07635 13.7461C7.07633 13.7457 7.0763 13.7451 7.07627 13.7443C7.07612 13.7412 7.07586 13.7361 7.07544 13.7298C7.07501 13.7235 7.07444 13.7164 7.07366 13.7088L6.57617 13.7588L6.07868 13.8088C6.07828 13.8048 6.07797 13.8011 6.07774 13.7977C6.07752 13.7944 6.0774 13.7919 6.07736 13.7911C6.07736 13.7911 6.07734 13.7907 6.07739 13.7918C6.07742 13.7925 6.07751 13.7945 6.07764 13.7969C6.07777 13.7994 6.07798 13.8033 6.07832 13.808C6.07866 13.8127 6.07918 13.8191 6.07998 13.8266L6.57715 13.7734ZM6.57617 13.7588L7.07366 13.7088C7.07228 13.695 7.07087 13.684 7.06972 13.6756C7.06946 13.6737 7.06924 13.6721 7.06908 13.6711C7.06903 13.6707 7.06893 13.67 7.06891 13.6698C7.06886 13.6695 7.06885 13.6695 7.06886 13.6695C7.06886 13.6695 7.0689 13.6698 7.06896 13.6702C7.06902 13.6706 7.06911 13.6713 7.06923 13.6722C7.06945 13.6739 7.06985 13.6771 7.07029 13.6811L6.57324 13.7354L6.07619 13.7896C6.07675 13.7947 6.07729 13.7989 6.07766 13.8018C6.07804 13.8047 6.07837 13.8071 6.07856 13.8085C6.07872 13.8096 6.07895 13.8112 6.07898 13.8114C6.07905 13.8119 6.07907 13.812 6.07907 13.812C6.07895 13.8111 6.07878 13.8098 6.07868 13.8088L6.57617 13.7588ZM6.57324 13.7354L7.07029 13.6811C6.94171 12.5033 5.56216 11.932 4.63874 12.6749L4.95215 13.0645L5.26556 13.454C5.57318 13.2066 6.03331 13.3968 6.0762 13.7896L6.57324 13.7354ZM4.95215 13.0645L4.6387 12.6749C4.6338 12.6788 4.62976 12.6822 4.62786 12.6838C4.6262 12.6852 4.62369 12.6873 4.62327 12.6877C4.62153 12.6892 4.62001 12.6904 4.61785 12.6922L4.93457 13.0791L5.25129 13.466C5.25871 13.4599 5.26434 13.4552 5.26818 13.452C5.26892 13.4513 5.26992 13.4505 5.27025 13.4502C5.27078 13.4498 5.27091 13.4497 5.27088 13.4497C5.27084 13.4497 5.27033 13.4501 5.26954 13.4508C5.26875 13.4514 5.26738 13.4526 5.2656 13.454L4.95215 13.0645ZM4.93457 13.0791L4.61785 12.6922C4.61032 12.6984 4.60355 12.7042 4.59749 12.7097C4.59149 12.715 4.58676 12.7195 4.58402 12.7221C4.58298 12.7231 4.58165 12.7244 4.58195 12.7241C4.58195 12.7241 4.58202 12.724 4.58212 12.7239C4.58222 12.7238 4.58239 12.7236 4.5826 12.7234C4.58301 12.7231 4.58372 12.7224 4.58461 12.7215C4.58632 12.7199 4.58946 12.717 4.59353 12.7134C4.59764 12.7098 4.60333 12.7048 4.61031 12.6992L4.9248 13.0879L5.2393 13.4766C5.24684 13.4705 5.2531 13.4651 5.25778 13.4609C5.26243 13.4568 5.26616 13.4533 5.26849 13.4511C5.27074 13.449 5.27259 13.4473 5.27309 13.4468C5.27408 13.4458 5.27346 13.4464 5.27318 13.4467C5.27197 13.4479 5.26893 13.4507 5.2649 13.4543C5.2608 13.458 5.25625 13.4619 5.25129 13.466L4.93457 13.0791ZM4.9248 13.0879L4.61033 12.6992C4.41264 12.8591 4.12555 12.845 3.94414 12.6658L3.59277 13.0215L3.2414 13.3772C3.78461 13.9138 4.64507 13.9573 5.23928 13.4766L4.9248 13.0879ZM3.59277 13.0215L3.94633 12.6679L3.33207 12.0537L2.97852 12.4072L2.62496 12.7608L3.23922 13.375L3.59277 13.0215ZM2.97852 12.4072L3.33422 12.0558C3.15546 11.8749 3.1411 11.5884 3.30109 11.3903L2.91211 11.0762L2.52313 10.762C2.0435 11.3559 2.08616 12.2154 2.62281 12.7586L2.97852 12.4072ZM2.91211 11.0762L3.30107 11.3904C3.30071 11.3908 3.30067 11.3908 3.30213 11.3891C3.30334 11.3876 3.30538 11.3851 3.30793 11.382L2.9209 11.0654L2.53387 10.7489C2.53187 10.7513 2.53047 10.753 2.52891 10.7549C2.52758 10.7565 2.52543 10.7592 2.52315 10.762L2.91211 11.0762ZM2.9209 11.0654L3.30793 11.382C3.31527 11.373 3.32099 11.3657 3.32536 11.3601C3.32636 11.3588 3.32723 11.3577 3.32787 11.3569C3.32873 11.3557 3.32874 11.3557 3.32907 11.3553C3.3298 11.3544 3.32789 11.3569 3.32515 11.3603L2.93555 11.0469L2.54594 10.7335C2.54187 10.7386 2.53847 10.743 2.53747 10.7443C2.53554 10.7468 2.53592 10.7463 2.53516 10.7473C2.53491 10.7476 2.53464 10.7479 2.53387 10.7489L2.9209 11.0654ZM2.93555 11.0469L3.32527 11.3601C4.06777 10.4363 3.49572 9.05653 2.31761 8.9287L2.26367 9.42578L2.20974 9.92286C2.60257 9.96549 2.79324 10.4258 2.54582 10.7336L2.93555 11.0469ZM2.26367 9.42578L2.31728 8.92866C2.30958 8.92783 2.30319 8.92731 2.30049 8.92709C2.29892 8.92696 2.29749 8.92685 2.29664 8.92678C2.29556 8.9267 2.29515 8.92667 2.29451 8.92662C2.29297 8.9265 2.29218 8.92643 2.29089 8.9263L2.24121 9.42383L2.19153 9.92135C2.20226 9.92243 2.2106 9.92311 2.21624 9.92355C2.21739 9.92364 2.21866 9.92374 2.21914 9.92378C2.21986 9.92383 2.21988 9.92383 2.21967 9.92382C2.21945 9.9238 2.21844 9.92372 2.21698 9.92359C2.21551 9.92345 2.2131 9.92323 2.21006 9.9229L2.26367 9.42578ZM2.24121 9.42383L2.29089 8.9263C2.30214 8.92743 2.31093 8.92882 2.31442 8.9294C2.31489 8.92948 2.31533 8.92955 2.31453 8.92941C2.31415 8.92935 2.31225 8.92903 2.31008 8.92868C2.30784 8.92831 2.30402 8.9277 2.29934 8.92704C2.29465 8.92637 2.28804 8.92548 2.28012 8.92465L2.22754 9.42188L2.17496 9.9191C2.16777 9.91834 2.16191 9.91756 2.15803 9.917C2.15415 9.91645 2.15118 9.91597 2.14983 9.91575C2.14856 9.91555 2.1476 9.91538 2.14822 9.91549C2.14842 9.91552 2.1499 9.91577 2.15149 9.91603C2.15941 9.91734 2.17358 9.91956 2.19153 9.92135L2.24121 9.42383ZM2.22754 9.42188L2.28029 8.92467C2.02689 8.89778 1.83448 8.68505 1.833 8.43068L1.33301 8.43359L0.833016 8.43651C0.837472 9.20057 1.41549 9.83852 2.17478 9.91908L2.22754 9.42188ZM1.33301 8.43359H1.83301V7.56543H1.33301H0.833008V8.43359H1.33301ZM1.33301 7.56543L1.833 7.56861C1.83461 7.31417 2.02732 7.10125 2.28039 7.07435L2.22754 6.57715L2.17469 6.07995C1.41555 6.16064 0.837869 6.79887 0.833018 7.56225L1.33301 7.56543ZM2.22754 6.57715L2.2802 7.07437C2.27462 7.07496 2.27 7.07535 2.26675 7.07559C2.26353 7.07584 2.26103 7.076 2.25976 7.07607C2.25854 7.07614 2.25769 7.07619 2.25799 7.07617C2.25829 7.07616 2.25807 7.07617 2.25868 7.07614C2.25905 7.07612 2.2596 7.07609 2.26023 7.07605C2.26623 7.07572 2.2772 7.07507 2.29107 7.07368L2.24121 6.57617L2.19136 6.07866C2.19846 6.07795 2.20407 6.07763 2.20565 6.07754C2.20573 6.07754 2.20574 6.07754 2.20559 6.07755C2.20551 6.07755 2.20543 6.07755 2.20528 6.07756C2.20515 6.07757 2.20496 6.07758 2.20475 6.07759C2.20407 6.07763 2.20228 6.07772 2.20017 6.07785C2.19801 6.07798 2.19466 6.07819 2.19063 6.0785C2.18658 6.0788 2.18119 6.07926 2.17488 6.07993L2.22754 6.57715ZM2.24121 6.57617L2.29107 7.07368C2.30491 7.07229 2.316 7.07087 2.3243 7.06973C2.32616 7.06947 2.32776 7.06925 2.32881 7.0691C2.32907 7.06906 2.32932 7.06903 2.32951 7.069C2.32973 7.06897 2.32987 7.06895 2.33002 7.06893C2.33031 7.06889 2.33037 7.06888 2.33034 7.06888C2.33029 7.06889 2.33002 7.06893 2.32959 7.06898C2.32916 7.06904 2.32846 7.06914 2.32757 7.06925C2.3259 7.06947 2.32281 7.06986 2.31883 7.0703L2.26465 6.57324L2.21047 6.07619C2.20542 6.07674 2.20119 6.07727 2.19829 6.07765C2.19541 6.07802 2.19297 6.07836 2.19159 6.07855C2.19039 6.07872 2.1888 6.07895 2.18857 6.07898C2.18829 6.07902 2.18811 6.07905 2.18799 6.07906C2.18788 6.07908 2.18784 6.07908 2.18784 6.07908C2.18865 6.07897 2.19015 6.07878 2.19135 6.07866L2.24121 6.57617ZM2.26465 6.57324L2.31892 7.07029C3.49639 6.94171 4.06745 5.56341 3.32529 4.63991L2.93555 4.95312L2.54581 5.26634C2.79308 5.57403 2.60303 6.03332 2.21037 6.0762L2.26465 6.57324ZM2.93555 4.95312L3.32525 4.63986C3.32794 4.64321 3.32981 4.64566 3.32909 4.64472C3.32874 4.64426 3.32874 4.64427 3.32788 4.64315C3.32723 4.64231 3.32636 4.64118 3.32535 4.63988C3.32096 4.63422 3.31522 4.62693 3.30786 4.61793L2.9209 4.93457L2.53394 5.25121C2.53467 5.2521 2.53489 5.2524 2.53513 5.2527C2.53587 5.25365 2.53551 5.25319 2.53742 5.25567C2.53843 5.25698 2.5418 5.26135 2.54585 5.26639L2.93555 4.95312ZM2.9209 4.93457L3.30786 4.61793C3.30166 4.61036 3.29578 4.60355 3.29035 4.59748C3.28497 4.59149 3.28051 4.58675 3.27793 4.58405C3.27697 4.58303 3.27568 4.58169 3.276 4.58202C3.276 4.58202 3.27606 4.58209 3.27616 4.58219C3.27626 4.58229 3.27642 4.58246 3.27663 4.58268C3.27702 4.58309 3.27768 4.58379 3.27852 4.58469C3.28012 4.5864 3.28303 4.58953 3.28663 4.59357C3.29026 4.59766 3.29517 4.60333 3.30079 4.61028L2.91211 4.9248L2.52343 5.23933C2.52951 5.24684 2.5349 5.25308 2.53905 5.25775C2.54316 5.26238 2.54662 5.2661 2.5488 5.26843C2.55092 5.27069 2.55269 5.27254 2.55318 5.27306C2.55415 5.27407 2.55355 5.27344 2.55331 5.27319C2.55218 5.272 2.54931 5.26897 2.54569 5.26493C2.54201 5.26083 2.53805 5.25623 2.53394 5.25121L2.9209 4.93457ZM2.91211 4.9248L3.30094 4.61047C3.14089 4.41248 3.15519 4.12533 3.33417 3.94421L2.97852 3.59277L2.62286 3.24133C2.08599 3.78464 2.04306 4.64511 2.52328 5.23914L2.91211 4.9248ZM2.97852 3.59277L3.33207 3.94633L3.94633 3.33207L3.59277 2.97852L3.23922 2.62496L2.62496 3.23922L2.97852 3.59277ZM3.59277 2.97852L3.94421 3.33417C4.12533 3.15519 4.41248 3.14089 4.61047 3.30094L4.9248 2.91211L5.23914 2.52328C4.64511 2.04306 3.78464 2.08599 3.24133 2.62286L3.59277 2.97852ZM4.9248 2.91211L4.61028 3.30079C4.60333 3.29517 4.59766 3.29026 4.59357 3.28663C4.58953 3.28303 4.5864 3.28012 4.58469 3.27852C4.58379 3.27768 4.58309 3.27702 4.58268 3.27663C4.58246 3.27642 4.58229 3.27626 4.58219 3.27616C4.58209 3.27606 4.58202 3.276 4.58202 3.276C4.58169 3.27568 4.58303 3.27697 4.58405 3.27793C4.58675 3.28051 4.59149 3.28497 4.59748 3.29035C4.60355 3.29578 4.61036 3.30166 4.61793 3.30786L4.93457 2.9209L5.25121 2.53394C5.25623 2.53805 5.26083 2.54201 5.26493 2.54569C5.26897 2.54931 5.272 2.55218 5.27319 2.55331C5.27344 2.55355 5.27407 2.55415 5.27306 2.55318C5.27254 2.55269 5.27069 2.55092 5.26843 2.5488C5.2661 2.54662 5.26238 2.54316 5.25775 2.53905C5.25308 2.5349 5.24684 2.52951 5.23933 2.52343L4.9248 2.91211ZM4.93457 2.9209L4.61793 3.30786C4.62693 3.31522 4.63422 3.32096 4.63988 3.32535C4.64118 3.32636 4.64231 3.32723 4.64315 3.32788C4.64427 3.32874 4.64426 3.32874 4.64472 3.32909C4.64566 3.32981 4.64321 3.32794 4.63986 3.32525L4.95312 2.93555L5.26639 2.54585C5.26135 2.5418 5.25698 2.53843 5.25567 2.53742C5.25319 2.53551 5.25365 2.53587 5.2527 2.53513C5.2524 2.53489 5.2521 2.53467 5.25121 2.53394L4.93457 2.9209ZM4.95312 2.93555L4.63991 3.32529C5.56341 4.06745 6.94171 3.49639 7.07029 2.31892L6.57324 2.26465L6.0762 2.21037C6.03332 2.60303 5.57403 2.79308 5.26634 2.54581L4.95312 2.93555ZM6.57324 2.26465L7.0703 2.31883C7.06986 2.32281 7.06947 2.3259 7.06925 2.32757C7.06914 2.32846 7.06904 2.32916 7.06898 2.32959C7.06893 2.33002 7.06889 2.33029 7.06888 2.33034C7.06888 2.33037 7.06889 2.33031 7.06893 2.33002C7.06895 2.32987 7.06897 2.32973 7.069 2.32951C7.06903 2.32932 7.06906 2.32907 7.0691 2.32881C7.06925 2.32776 7.06947 2.32616 7.06973 2.3243C7.07087 2.316 7.07229 2.30491 7.07368 2.29107L6.57617 2.24121L6.07866 2.19135C6.07878 2.19015 6.07897 2.18865 6.07908 2.18784C6.07908 2.18784 6.07908 2.18788 6.07906 2.18799C6.07905 2.18811 6.07902 2.18829 6.07898 2.18857C6.07895 2.1888 6.07872 2.19039 6.07855 2.19159C6.07836 2.19297 6.07802 2.19541 6.07765 2.19829C6.07727 2.20119 6.07674 2.20542 6.07619 2.21047L6.57324 2.26465ZM6.57617 2.24121L7.07368 2.29107C7.07507 2.2772 7.07572 2.26623 7.07605 2.26023C7.07609 2.2596 7.07612 2.25905 7.07614 2.25868C7.07617 2.25807 7.07616 2.25829 7.07617 2.25799C7.07619 2.25769 7.07614 2.25854 7.07607 2.25976C7.076 2.26103 7.07584 2.26353 7.07559 2.26675C7.07535 2.27 7.07496 2.27462 7.07437 2.2802L6.57715 2.22754L6.07993 2.17488C6.07926 2.18119 6.0788 2.18658 6.0785 2.19063C6.07819 2.19466 6.07798 2.19801 6.07785 2.20017C6.07772 2.20228 6.07763 2.20407 6.07759 2.20475C6.07758 2.20496 6.07757 2.20515 6.07756 2.20528C6.07755 2.20543 6.07755 2.20551 6.07755 2.20559C6.07754 2.20574 6.07754 2.20573 6.07754 2.20565C6.07763 2.20407 6.07795 2.19846 6.07866 2.19136L6.57617 2.24121ZM6.57715 2.22754L7.07435 2.28039C7.10125 2.02732 7.31417 1.83461 7.56861 1.833L7.56543 1.33301L7.56225 0.833018C6.79887 0.837869 6.16064 1.41555 6.07995 2.17469L6.57715 2.22754ZM7.56543 1.33301V1.83301H8.43359V1.33301V0.833008H7.56543V1.33301ZM8 5.33301V4.83301C6.2511 4.83301 4.83301 6.2511 4.83301 8H5.33301H5.83301C5.83301 6.80338 6.80338 5.83301 8 5.83301V5.33301ZM5.33301 8H4.83301C4.83301 9.7489 6.2511 11.167 8 11.167V10.667V10.167C6.80338 10.167 5.83301 9.19662 5.83301 8H5.33301ZM8 10.667V11.167C9.7489 11.167 11.167 9.7489 11.167 8H10.667H10.167C10.167 9.19662 9.19662 10.167 8 10.167V10.667ZM10.667 8H11.167C11.167 6.2511 9.7489 4.83301 8 4.83301V5.33301V5.83301C9.19662 5.83301 10.167 6.80338 10.167 8H10.667Z" fill="#AD5FFF"/>
</svg>
